<svg width="20" height="20" viewBox="0 0 20 20" fill="none" xmlns="http://www.w3.org/2000/svg">
<path fill-rule="evenodd" clip-rule="evenodd" d="M3.29366 0.188424C2.86647 0.347648 2.64786 0.658339 2.53075 1.27252C2.45104 1.69051 2.44979 2.01843 2.52589 2.52541L2.58259 2.90308L2.11837 2.88078C1.29527 2.84125 0.642893 3.05756 0.35961 3.46389C0.169043 3.73719 0.164229 4.11342 0.346326 4.50739C0.499076 4.83801 0.575173 4.93889 0.98672 5.35655L1.31092 5.68564L1.04426 5.84426C0.889746 5.93618 0.718527 6.08764 0.637245 6.20432C0.508843 6.38863 0.4969 6.438 0.4969 6.78492C0.4969 7.1167 0.515323 7.20189 0.644003 7.46603C0.724915 7.63209 0.83633 7.8359 0.891552 7.9189L0.991996 8.06986H0.58855H0.185059L0.217784 8.47628C0.347483 10.0868 0.956864 11.5038 2.06051 12.7611C2.5638 13.3345 3.46581 14.0958 3.99655 14.3951C4.15865 14.4866 4.17429 14.5147 4.22206 14.8C4.2503 14.9687 4.42434 16.0159 4.6088 17.1272L4.94415 19.1477H9.68506H14.426L14.7613 17.1272C14.9458 16.0159 15.1201 14.9709 15.1487 14.8048L15.2008 14.5029L15.6021 14.2391C17.6826 12.8716 18.9681 10.7851 19.1526 8.47628L19.1851 8.06986H18.7167C18.4591 8.06986 18.2483 8.06215 18.2483 8.05267C18.2483 8.04324 18.3609 7.80812 18.4985 7.53013C18.9623 6.59351 19.1484 5.81825 19.144 4.84172C19.1408 4.14273 19.0566 3.68503 18.8254 3.10977C18.6638 2.70739 18.2528 2.04486 18.0427 1.84778L17.921 1.73366L16.684 2.97433L15.447 4.21495L15.1986 3.83812C14.7475 3.15366 13.9451 2.46484 13.2286 2.1469C12.2202 1.69938 11.0414 1.60853 9.99945 1.89799C9.60567 2.00737 8.99449 2.28578 8.69667 2.49141C8.58192 2.57065 8.47903 2.63544 8.46801 2.63544C8.45699 2.63544 8.43658 2.38987 8.42265 2.08968C8.39339 1.45985 8.30887 1.1407 8.09784 0.863082C7.88122 0.578077 7.68292 0.475984 7.34752 0.476681C6.90135 0.477563 6.52697 0.682074 5.996 1.21488L5.56247 1.64991L5.43809 1.48079C5.00521 0.891972 4.50821 0.440823 4.0956 0.262137C3.82255 0.143881 3.49428 0.11369 3.29366 0.188424ZM4.7827 3.37861C5.14615 3.94063 5.45934 4.40047 5.47869 4.40047C5.49799 4.40047 5.80664 4.01095 6.16449 3.53491C6.52239 3.05886 6.81521 2.69299 6.81521 2.72188C6.81521 2.75077 6.75137 3.29798 6.67338 3.9378C6.59538 4.57767 6.53808 5.13927 6.54609 5.18586C6.55868 5.25924 6.69865 5.2101 7.6021 4.81488C8.17491 4.56429 8.66964 4.35811 8.70144 4.35667C8.74305 4.35476 8.7593 4.45686 8.7593 4.72049C8.7593 5.62995 8.37733 6.79212 7.77957 7.70134L7.53725 8.06986H5.49614H3.45502L3.10935 7.84212C2.73363 7.5946 2.21201 7.11916 2.2495 7.05831C2.26232 7.03751 2.7427 6.83332 3.31699 6.60461C3.89129 6.37585 4.36134 6.17617 4.36157 6.16085C4.36176 6.14556 3.92489 5.77068 3.39068 5.32789C2.85647 4.88506 2.42465 4.51747 2.43109 4.51106C2.43752 4.5046 2.92142 4.56866 3.5065 4.65338C4.09158 4.73814 4.57779 4.80062 4.58704 4.79226C4.59973 4.78078 4.30811 3.33955 4.11069 2.43804C4.10088 2.39331 4.0994 2.35676 4.10741 2.35676C4.11537 2.35676 4.41925 2.81659 4.7827 3.37861ZM12.0226 3.40564C12.8529 3.60393 13.6414 4.23358 14.0383 5.01535L14.2444 5.42116L12.9255 6.74553L11.6066 8.06986H10.5098H9.41302L9.63882 7.59377C10.0848 6.65347 10.2797 5.88982 10.3187 4.92979C10.3399 4.40846 10.3293 4.20227 10.2668 3.92006C10.2235 3.72502 10.1997 3.54657 10.2139 3.52358C10.2457 3.47188 10.7992 3.33806 11.0506 3.3213C11.3468 3.30151 11.7233 3.33421 12.0226 3.40564ZM17.5554 5.26853C17.4534 6.18584 17.0279 7.13481 16.3982 7.84923L16.2038 8.06986H15.016H13.8282L15.6796 6.21143L17.5309 4.35304L17.5668 4.59727C17.5867 4.73197 17.5816 5.0329 17.5554 5.26853ZM17.2978 9.7536C17.2387 9.95226 16.8736 10.7 16.7125 10.9521C15.6301 12.6459 13.6807 13.8385 11.282 14.2744C10.7198 14.3766 9.23718 14.4145 8.61678 14.3424C6.21578 14.0637 4.09421 12.9305 2.88573 11.281C2.62929 10.9311 2.14253 10.0197 2.06986 9.7536L2.0413 9.64909H9.68506H17.3288L17.2978 9.7536ZM6.50707 15.5216C7.55604 15.8407 8.47676 15.9708 9.68506 15.9708C10.8967 15.9708 11.9602 15.8168 12.9533 15.4976C13.1971 15.4192 13.4081 15.3668 13.4223 15.3811C13.4365 15.3953 13.3658 15.8933 13.2652 16.4877L13.0822 17.5685H9.68409H6.28604L6.11376 16.5466C5.93611 15.4927 5.91907 15.3622 5.95939 15.3622C5.97239 15.3622 6.21888 15.4339 6.50707 15.5216Z" fill="#E30613"/>
</svg>
