<svg width="23" height="24" viewBox="0 0 23 24" fill="none" xmlns="http://www.w3.org/2000/svg">
<path fill-rule="evenodd" clip-rule="evenodd" d="M17.6967 0.1628C17.6359 0.177067 17.4491 0.215769 17.2817 0.248797C17.1144 0.281825 16.7426 0.423432 16.4555 0.563409C16.0225 0.774667 15.8564 0.896444 15.4796 1.27897C15.1019 1.66239 14.9835 1.82899 14.7758 2.2697C14.4577 2.94437 14.3795 3.28184 14.3795 3.97914C14.3795 4.67133 14.458 5.01476 14.7647 5.66426C15.4413 7.09684 16.9943 7.97029 18.5267 7.78004C19.6986 7.63456 20.6309 7.06594 21.2578 6.11447C22.2802 4.56259 22.093 2.6028 20.7958 1.27824C20.3185 0.790844 19.7307 0.439609 19.1076 0.269524C18.7959 0.184426 17.8951 0.116291 17.6967 0.1628ZM3.04176 2.08558C3.01747 2.1254 1.62362 9.60862 1.62362 9.699C1.62362 9.71967 1.29994 9.73663 0.904337 9.73663H0.185059V10.6915V11.6464H2.06625H3.94744V12.6013V13.5562H5.02624H6.10511L7.35908 15.466L8.61306 17.3758L9.64147 17.3743L10.6699 17.3728L12.0392 15.282L13.4085 13.1911L13.4086 18.1763L13.4087 23.1614H14.3493H15.2899V22.2065V21.2516H18.1394H20.9888V22.2065V23.1614H21.9294H22.87V16.449V9.73663H21.4401H20.0103L19.07 11.1698L18.1297 12.6029L17.1939 11.1712L16.2582 9.73938L14.8337 9.73803L13.4093 9.73663L11.5231 12.6081L9.63693 15.4795L8.39673 13.5915C7.71463 12.553 7.15653 11.6905 7.15653 11.6749C7.15653 11.6592 7.92837 11.6464 8.87173 11.6464H10.5869V10.6915V9.73663H9.87794H9.16895L8.46666 5.93107C8.08041 3.83799 7.76454 2.10653 7.76476 2.08339C7.76526 2.02688 3.07611 2.02907 3.04176 2.08558ZM18.5842 2.12776C19.4521 2.35553 20.0017 3.07334 20.0017 3.97914C20.0017 4.43098 19.9029 4.75205 19.657 5.09975C19.3035 5.59938 18.7706 5.86979 18.1394 5.86979C17.0796 5.86979 16.2893 5.08306 16.2685 4.00723C16.2512 3.11434 16.8107 2.36587 17.6709 2.13119C18.0638 2.02396 18.1868 2.02351 18.5842 2.12776ZM6.6948 6.7315C6.97582 8.2453 7.2071 9.54071 7.20881 9.61025L7.21185 9.73663H5.38599C3.89432 9.73663 3.56013 9.72281 3.56013 9.66114C3.56013 9.57289 4.5472 4.19546 4.59053 4.04784C4.61709 3.95735 4.69267 3.94949 5.40182 3.96358L6.18384 3.97914L6.6948 6.7315ZM16.7285 13.9213C17.4896 15.0799 18.1245 16.0277 18.1394 16.0277C18.1542 16.0277 18.7951 15.0735 19.5637 13.9073L20.9611 11.7869L20.9755 15.4941C20.9834 17.5331 20.9778 19.2332 20.9632 19.2721C20.9422 19.3279 20.3452 19.3398 18.1271 19.3283L15.3176 19.3137L15.3033 15.5643C15.2955 13.5022 15.3016 11.8149 15.3168 11.8149C15.3321 11.8149 15.9673 12.7628 16.7285 13.9213Z" fill="#E30613"/>
</svg>
