<svg width="23" height="20" viewBox="0 0 23 20" fill="none" xmlns="http://www.w3.org/2000/svg">
<path fill-rule="evenodd" clip-rule="evenodd" d="M5.88445 0.273156C5.88468 0.342126 5.98405 1.18895 6.10527 2.15491C6.2265 3.12088 6.32587 3.93007 6.32609 3.95304C6.32637 3.97601 5.79067 3.99486 5.13568 3.99486H3.94478L3.95994 4.92877L3.9751 5.86268L4.9157 5.89769C6.16132 5.94408 6.82106 6.11804 7.72724 6.63891C9.05182 7.40026 9.99613 8.64579 10.4099 10.1771L10.5548 10.7134L10.5739 14.003L10.5931 17.2926L9.64938 17.7652L8.70574 18.2379V18.727V19.2162H11.5275H14.3493V18.727V18.2379L13.4057 17.7652L12.462 17.2926L12.4811 14.003L12.5002 10.7134L12.6451 10.1771C13.225 8.03119 14.7916 6.51887 16.9774 5.9951C17.1296 5.95863 17.6649 5.91392 18.167 5.89574L19.0799 5.86268L19.0951 4.92877L19.1103 3.99486H17.9194C17.2644 3.99486 16.7287 3.97601 16.729 3.95304C16.7292 3.93007 16.8286 3.12088 16.9498 2.15491C17.071 1.18895 17.1704 0.342126 17.1706 0.273156L17.1711 0.147705H15.7595H14.348L14.3794 0.356789C14.49 1.09444 14.8223 3.94562 14.8003 3.96782C14.7653 4.00316 8.28978 4.00316 8.25475 3.96782C8.23273 3.94562 8.56509 1.09444 8.6757 0.356789L8.70707 0.147705H7.29551H5.88396L5.88445 0.273156ZM12.6618 6.35913C12.4183 6.61739 12.0697 7.05591 11.8872 7.33363C11.7046 7.61135 11.5427 7.83861 11.5275 7.83861C11.5123 7.83861 11.3505 7.61224 11.1679 7.33558C10.9853 7.05892 10.6367 6.6204 10.3933 6.36108L9.95064 5.88966L11.5275 5.88961H13.1044L12.6618 6.35913ZM0.185059 10.6298V11.5777H0.908044C1.57072 11.5777 1.62865 11.5858 1.60226 11.6752C1.58638 11.7289 1.27194 13.4037 0.903452 15.3969C0.535015 17.3902 0.220912 19.065 0.205586 19.1186C0.179692 19.2089 0.249904 19.2162 1.14518 19.2162H2.11278L2.14382 19.0629C2.16092 18.9786 2.31351 18.1568 2.48299 17.2369C2.6524 16.3169 2.80395 15.5203 2.81966 15.4666C2.84572 15.3778 2.94991 15.369 3.97776 15.369C5.10354 15.369 5.10736 15.3694 5.13651 15.4945C5.15256 15.5635 5.29055 16.2974 5.44309 17.1254C5.59558 17.9533 5.74652 18.7625 5.77844 18.9235L5.83648 19.2162H6.76391C7.27404 19.2162 7.70345 19.204 7.71823 19.1891C7.73792 19.1693 6.64346 13.1602 6.36056 11.7348L6.32936 11.5777H7.04725H7.76515V10.6298V9.68195H3.9751H0.185059V10.6298ZM15.2899 10.6298V11.5777H16.0078H16.7257L16.6945 11.7348C16.4116 13.1602 15.3171 19.1693 15.3368 19.1891C15.3516 19.204 15.781 19.2162 16.2911 19.2162H17.2186L17.2766 18.9235C17.3085 18.7625 17.4595 17.9533 17.612 17.1254C17.7645 16.2974 17.9025 15.5635 17.9185 15.4945C17.9477 15.3694 17.9515 15.369 19.0773 15.369C20.1051 15.369 20.2093 15.3778 20.2354 15.4666C20.2511 15.5203 20.4026 16.3169 20.5721 17.2369C20.7415 18.1568 20.8941 18.9786 20.9112 19.0629L20.9423 19.2162H21.9099C22.8051 19.2162 22.8754 19.2089 22.8495 19.1186C22.8341 19.065 22.52 17.3902 22.1516 15.3969C21.7831 13.4037 21.4687 11.7289 21.4528 11.6752C21.4264 11.5858 21.4843 11.5777 22.147 11.5777H22.87V10.6298V9.68195H19.0799H15.2899V10.6298ZM4.58721 12.5255L4.75712 13.4455L3.98501 13.461C3.5603 13.4695 3.20641 13.4695 3.1985 13.461C3.1829 13.4441 3.49324 11.7628 3.53369 11.645C3.55178 11.5924 3.67478 11.5774 3.98788 11.5892L4.41729 11.6055L4.58721 12.5255ZM19.6959 12.5255C19.792 13.0315 19.8643 13.4524 19.8564 13.461C19.8486 13.4695 19.4947 13.4695 19.07 13.461L18.2978 13.4455L18.4556 12.5813C18.5424 12.1059 18.6246 11.6846 18.6383 11.645C18.6565 11.5925 18.7796 11.5774 19.0922 11.5892L19.5211 11.6055L19.6959 12.5255Z" fill="#E40613"/>
</svg>
