<svg width="18" height="18" viewBox="0 0 18 18" fill="none" xmlns="http://www.w3.org/2000/svg">
<path fill-rule="evenodd" clip-rule="evenodd" d="M3.58263 0.177692C2.61563 0.322606 1.75874 1.00145 1.36743 1.9327C1.29434 2.10663 1.21114 2.45332 1.18251 2.70305C1.15387 2.95283 1.13028 5.25614 1.13006 7.82149L1.12962 12.4858H2.10083H3.07205V11.539V10.5922H6.84592H10.6198V11.539V12.4858H11.5621H12.5044L12.5194 7.59459L12.5345 2.70344L12.6822 2.47955C12.863 2.20537 13.1291 2.07115 13.492 2.07115C13.9179 2.07115 14.3028 2.38521 14.3876 2.80202L14.4258 2.99009L15.3608 3.00541L16.2957 3.02072L16.268 2.6434C16.2163 1.93894 15.7958 1.20657 15.1712 0.732843C14.1669 -0.0288747 12.8036 -0.0412389 11.7972 0.702267C11.4117 0.987027 11.1856 1.2514 10.9529 1.68949C10.6885 2.18727 10.6218 2.61878 10.6207 3.83942L10.6198 4.91151H6.84592H3.07205V3.80589C3.07205 2.7481 3.07749 2.69213 3.19825 2.51235C3.39555 2.21852 3.65456 2.07115 3.97373 2.07115C4.46738 2.07115 4.83328 2.36399 4.93057 2.83694L4.96781 3.01794H5.90684C6.98971 3.01794 6.90935 3.07675 6.76439 2.39028C6.46049 0.951105 5.03529 -0.0400135 3.58263 0.177692ZM10.6198 7.75187V8.69866H6.84592H3.07205V7.75187V6.80508H6.84592H10.6198V7.75187ZM0.186151 15.3527C0.186151 16.6578 0.132706 16.5266 0.773542 16.794C2.25018 17.4101 3.92927 17.3895 5.44826 16.7366L5.90972 16.5383L6.28073 16.7062C7.08678 17.071 7.79677 17.2197 8.73285 17.2197C9.66894 17.2197 10.3789 17.071 11.185 16.7062L11.556 16.5383L12.0175 16.7366C13.5153 17.3804 15.1427 17.412 16.606 16.8259C17.3434 16.5304 17.2796 16.6702 17.2796 15.3527C17.2796 14.7255 17.2667 14.2123 17.251 14.2123C17.2353 14.2123 17.0804 14.3285 16.9067 14.4704C16.4991 14.8036 15.8241 15.1295 15.2987 15.2468C14.6774 15.3855 13.732 15.3371 13.145 15.1364C12.6735 14.9753 12.0127 14.5949 11.7895 14.3561C11.7154 14.277 11.6356 14.2123 11.612 14.2123C11.5885 14.2123 11.4031 14.3384 11.2003 14.4924C10.4499 15.0625 9.87234 15.2692 8.91317 15.3113C8.37861 15.3348 8.14729 15.3205 7.83095 15.2442C7.2803 15.1113 6.72477 14.8441 6.2709 14.4937L5.89019 14.1998L5.74367 14.3189C5.33609 14.6506 4.77312 14.9757 4.34939 15.124C3.73653 15.3387 2.81165 15.3907 2.16699 15.2468C1.64164 15.1295 0.96662 14.8036 0.559042 14.4704C0.385333 14.3285 0.230383 14.2123 0.214677 14.2123C0.198971 14.2123 0.186151 14.7255 0.186151 15.3527Z" fill="#E30613"/>
</svg>
