<svg width="23" height="23" viewBox="0 0 23 23" fill="none" xmlns="http://www.w3.org/2000/svg">
<path fill-rule="evenodd" clip-rule="evenodd" d="M20.2049 18.229C20.2049 16.6942 18.7718 15.5619 17.2787 15.917L2.63405 19.3994C2.35859 19.4649 2.16416 19.711 2.16416 19.9941C2.16416 20.3317 2.43785 20.6054 2.77547 20.6054H17.8284C19.1409 20.6054 20.2049 19.5415 20.2049 18.229ZM16.8391 14.0685C19.526 13.4296 22.1049 15.4672 22.1049 18.229C22.1049 20.5908 20.1902 22.5054 17.8284 22.5054H2.77547C1.38851 22.5054 0.26416 21.3811 0.26416 19.9941C0.26416 18.831 1.06289 17.82 2.1945 17.5509L16.8391 14.0685Z" fill="#E30613"/>
<path d="M16.5677 17.2532H18.4712V19.1538H16.5677V17.2532Z" fill="#E30613"/>
<path fill-rule="evenodd" clip-rule="evenodd" d="M22.0443 1.07546L19.6621 7.41812H18.4753V14.3543H16.5753V7.41812H11.8614V8.45773H9.96143V5.51812H18.3461L20.2656 0.40741L22.0443 1.07546Z" fill="#E30613"/>
</svg>
