<svg width="24" height="24" viewBox="0 0 24 24" fill="none" xmlns="http://www.w3.org/2000/svg">
<path fill-rule="evenodd" clip-rule="evenodd" d="M5.23685 1.14841V2.14917L4.95142 2.21501C4.28689 2.36841 3.45502 2.90508 2.98077 3.48638C2.38191 4.22034 2.13808 4.96717 2.1282 6.09759L2.12158 6.85536L5.96015 6.86978L9.79872 6.88421L9.76959 6.05588C9.74585 5.38108 9.71464 5.1478 9.60103 4.7972C9.3948 4.1609 9.08777 3.65578 8.63524 3.20847C8.16009 2.73882 7.75449 2.48831 7.12986 2.27883L6.66819 2.12396L6.65286 1.13583L6.63754 0.147705H5.93719H5.23685V1.14841ZM16.731 1.13583L16.7156 2.12396L16.254 2.27883C15.6162 2.49274 15.2175 2.74213 14.7233 3.23631C14.4081 3.55154 14.2399 3.77949 14.0606 4.13441C13.7227 4.8036 13.6531 5.10514 13.6168 6.05588L13.5851 6.88421L17.4237 6.86978L21.2622 6.85536L21.2544 6.09759C21.243 4.98895 21.0365 4.32059 20.4775 3.58242C19.9972 2.94814 19.1509 2.3806 18.4417 2.21709L18.147 2.14917V1.14841V0.147705H17.4466H16.7463L16.731 1.13583ZM6.55817 3.60268C6.98841 3.71472 7.33154 3.91785 7.65974 4.25475C7.91536 4.51722 8.16935 4.95886 8.24333 5.26966L8.2801 5.42402H5.93848H3.59687L3.63504 5.27196C3.71575 4.9505 3.97766 4.51015 4.25068 4.23696C4.8711 3.61621 5.71705 3.38366 6.55817 3.60268ZM17.9721 3.57506C18.7868 3.76288 19.5539 4.49555 19.7488 5.27196L19.7869 5.42402H17.4514C14.7882 5.42402 15.0042 5.47768 15.2864 4.88634C15.7669 3.87957 16.8979 3.32741 17.9721 3.57506ZM3.30033 8.88421C3.07008 9.00686 2.88451 9.18243 2.78695 9.36991C2.72319 9.4925 2.43535 12.0543 2.43091 12.5386C2.43047 12.5924 2.168 12.6088 1.30768 12.6088H0.185059V13.563V14.5172H1.22416H2.26325L2.23479 14.7277C2.14914 15.3619 2.10188 16.198 2.14201 16.3696C2.23367 16.7614 2.41464 17.0052 2.79245 17.2462C2.93604 17.3378 3.10813 17.3556 4.08347 17.3799L5.20878 17.408L5.2245 18.1236L5.24021 18.8393H3.66518H2.09014L2.10586 19.555L2.12158 20.2707L3.67921 20.2856L5.23685 20.3005V21.0002C5.23685 21.6802 5.23331 21.7007 5.11055 21.7272C5.04106 21.7422 4.39067 21.8446 3.66518 21.9546C2.93969 22.0646 2.2893 22.1669 2.21981 22.182C2.10092 22.2077 2.09351 22.2372 2.09351 22.6854V23.1614H5.93848H9.78345V22.688C9.78345 22.2858 9.76875 22.2104 9.68523 22.1858C9.63123 22.1698 8.98078 22.0661 8.23985 21.9553C7.49892 21.8445 6.83591 21.7417 6.76642 21.7268C6.64366 21.7006 6.64012 21.6804 6.64012 20.9993V20.2987H8.21179H9.78345V19.569V18.8393H8.2101H6.63675L6.65247 18.1236L6.66819 17.408L7.79081 17.3799C9.05196 17.3484 9.1201 17.33 9.46469 16.9274C9.74815 16.5962 9.80681 16.2941 9.73193 15.5501C9.69853 15.2183 9.67119 14.8501 9.67119 14.732V14.5172H11.6919H13.7126V14.732C13.7126 14.8501 13.6853 15.2183 13.6519 15.5501C13.577 16.2941 13.6357 16.5962 13.9191 16.9274C14.2637 17.33 14.3319 17.3484 15.593 17.3799L16.7156 17.408L16.7313 18.1236L16.7471 18.8393H15.1737H13.6004V19.569V20.2987H15.172H16.7437V20.9993C16.7437 21.6802 16.7402 21.7007 16.6174 21.7276C16.5479 21.7429 15.8975 21.8445 15.172 21.9534C14.4465 22.0622 13.7961 22.1643 13.7267 22.1803C13.6079 22.2076 13.6004 22.2377 13.6004 22.6854V23.1614H17.4453H21.2903V22.6854C21.2903 22.2377 21.2828 22.2076 21.164 22.1803C21.0945 22.1643 20.4441 22.0622 19.7186 21.9534C18.9931 21.8445 18.3428 21.7429 18.2733 21.7276C18.1505 21.7007 18.147 21.6801 18.147 21.0002V20.3005L19.7046 20.2856L21.2622 20.2707L21.278 19.555L21.2937 18.8393H19.7186H18.1436L18.1593 18.1236L18.175 17.408L19.3003 17.3799C20.2757 17.3556 20.4478 17.3378 20.5914 17.2462C20.9692 17.0052 21.1501 16.7614 21.2418 16.3696C21.2819 16.198 21.2347 15.3619 21.149 14.7277L21.1206 14.5172H22.1597H23.1988V13.563V12.6088H22.0761C21.2158 12.6088 20.9534 12.5924 20.9528 12.5386C20.9492 12.1708 20.6683 9.56626 20.6184 9.43738C20.5317 9.2137 20.3539 9.02903 20.0998 8.89869C19.9045 8.79855 19.7395 8.79187 17.4512 8.79187C15.8635 8.79187 14.9558 8.81276 14.8529 8.8516C14.6541 8.9267 14.4028 9.16217 14.2877 9.38125C14.2281 9.49475 14.1572 9.9979 14.0704 10.9249C13.9995 11.6812 13.9405 12.3696 13.9393 12.4544L13.9371 12.6088H11.6919H9.44667L9.44493 12.4544C9.44397 12.3696 9.38386 11.6761 9.31134 10.9135C9.16624 9.38832 9.14322 9.30907 8.7539 8.99428L8.53825 8.81994L6.00348 8.80725C3.77301 8.79608 3.44851 8.80535 3.30033 8.88421ZM7.36982 10.724C7.36982 10.8019 7.76572 15.1396 7.78648 15.289L7.8118 15.4715H5.96301H4.11423V15.3069C4.11423 15.2165 4.20263 14.1791 4.31069 13.0017C4.41874 11.8243 4.50714 10.8248 4.50714 10.7807C4.50714 10.7131 4.73425 10.7003 5.93848 10.7003C6.72572 10.7003 7.36982 10.711 7.36982 10.724ZM18.8771 10.8266C18.8773 10.8961 18.9655 11.8875 19.073 13.0298C19.1804 14.172 19.2686 15.1887 19.269 15.289L19.2696 15.4715H17.4208H15.572L15.5973 15.289C15.6181 15.1396 16.014 10.8019 16.014 10.724C16.014 10.711 16.6581 10.7003 17.4453 10.7003H18.8767L18.8771 10.8266Z" fill="#E40613"/>
</svg>
