<svg width="25" height="25" viewBox="0 0 25 25" fill="none" xmlns="http://www.w3.org/2000/svg">
<path fill-rule="evenodd" clip-rule="evenodd" d="M2.37266 0.224902C1.77263 0.386556 1.31058 0.782663 1.03345 1.37295L0.880859 1.69802V12.1604V22.6229L1.03544 22.9523C1.25292 23.4156 1.56314 23.7334 2.01521 23.9557L2.4037 24.1468H8.82879C16.2494 24.1468 15.6183 24.1961 16.2558 23.5667C16.525 23.301 16.6502 23.1218 16.7427 22.8697L16.8672 22.5305V12.1604V1.79034L16.7427 1.45114C16.5541 0.937402 16.0168 0.429285 15.4902 0.26681C15.0999 0.146302 15.0162 0.144836 8.86786 0.148705C4.1284 0.151753 2.57676 0.169923 2.37266 0.224902ZM14.8726 9.14187V16.1461H8.85935H2.84615V9.18097C2.84615 5.35008 2.86375 2.19817 2.88528 2.17671C2.90675 2.1552 5.61269 2.13762 8.89848 2.13762H14.8726V9.14187ZM21.8671 3.67744C21.6017 3.94407 21.3844 4.18415 21.3844 4.211C21.3844 4.23784 21.5074 4.39551 21.6578 4.56144C21.8082 4.72738 22.0777 5.08667 22.2568 5.35993C23.5752 7.37153 23.7468 9.97183 22.7045 12.1472C22.4051 12.7721 22.2111 13.073 21.7192 13.6749L21.3678 14.1049L21.8869 14.6261L22.4061 15.1472L22.5473 15.0166C22.7967 14.7858 23.4226 13.9539 23.7071 13.4751C25.4285 10.5774 25.2426 6.85063 23.2408 4.13046C22.9863 3.78465 22.4471 3.19265 22.3866 3.19265C22.3664 3.19265 22.1326 3.41081 21.8671 3.67744ZM6.86473 7.17834L4.87075 9.17118H5.38378H5.89675V11.164V13.1569H6.89406H7.89137V12.1604V11.164H8.88868H9.886V12.1604V13.1569H10.8833H11.8806V11.164V9.17118H12.3499C12.6081 9.17118 12.8193 9.15125 12.8193 9.12687C12.8193 9.07869 8.93609 5.1855 8.88804 5.1855C8.87191 5.1855 7.96142 6.08227 6.86473 7.17834ZM19.7322 5.81559L19.2264 6.32845L19.4818 6.64801C20.6231 8.07541 20.6062 10.3929 19.4449 11.711L19.2211 11.9649L19.7672 12.5082L20.3132 13.0515L20.6732 12.5913C22.111 10.7534 22.2832 8.34796 21.119 6.36327C20.9008 5.99125 20.3568 5.30272 20.2811 5.30272C20.2574 5.30272 20.0104 5.53354 19.7322 5.81559ZM14.8726 20.1614V22.1838L8.87402 22.1689L2.87548 22.154L2.85999 20.2202C2.85149 19.1566 2.85724 18.2532 2.87284 18.2127C2.89531 18.1541 4.13309 18.139 8.88687 18.139H14.8726V20.1614ZM7.66393 19.1915C7.21531 19.3032 6.89406 19.7004 6.89406 20.1434C6.89406 20.6161 7.18287 21.0017 7.62738 21.1224C7.93308 21.2055 9.84734 21.2051 10.1472 21.1218C10.7886 20.944 11.0687 20.1594 10.691 19.5994C10.4238 19.2031 10.2835 19.166 9.00602 19.1534C8.37683 19.1473 7.77287 19.1644 7.66393 19.1915Z" fill="#E30613"/>
</svg>
