<svg width="54" height="20" viewBox="0 0 54 20" fill="none" xmlns="http://www.w3.org/2000/svg">
<rect width="53" height="19" transform="translate(0.202881 0.147705)" fill="#58606A"/>
<path d="M12.2949 13.4417H14.6469C17.2989 13.4417 18.9549 11.7497 18.9549 9.46965C18.9549 7.16565 17.2989 5.52165 14.6469 5.52165H12.2949V13.4417ZM13.2309 12.6017V6.36165H14.6349C16.7349 6.36165 17.9829 7.64565 17.9829 9.46965C17.9829 11.2697 16.7229 12.6017 14.6349 12.6017H13.2309ZM25.9354 13.4417H26.9314L23.4994 5.38965H23.1514L19.7194 13.4417H20.7034L21.3754 11.8337H25.2634L25.9354 13.4417ZM24.9034 10.9937H21.7354L23.3194 7.09365L24.9034 10.9937ZM34.5764 13.4417L32.0444 10.0097C33.0884 9.70965 33.7124 8.88165 33.7124 7.81365C33.7124 6.48165 32.7164 5.52165 31.1804 5.52165H28.3964V13.4417H29.3324V10.1177H31.0244L33.4844 13.4417H34.5764ZM29.3324 6.36165H31.1444C32.1524 6.36165 32.7404 6.96165 32.7404 7.82565C32.7404 8.70165 32.1644 9.27765 31.1444 9.27765H29.3324V6.36165ZM35.8613 13.4417H36.7973V5.52165H35.8613V13.4417ZM38.1293 9.19365L41.6693 5.52165H40.4693L36.9053 9.19365L40.8053 13.4417H41.9933L38.1293 9.19365Z" fill="white"/>
</svg>
