<svg width="54" height="20" viewBox="0 0 54 20" fill="none" xmlns="http://www.w3.org/2000/svg">
<rect width="53" height="19" transform="translate(0.337891 0.147705)" fill="#EBEDF0"/>
<path d="M11.4299 13.4417H16.1219V12.6017H12.3659V5.52165H11.4299V13.4417ZM17.5002 13.4417H18.4362V5.52165H17.5002V13.4417ZM20.0897 9.48165C20.0537 11.7497 21.9377 13.6097 24.2057 13.5737C24.9857 13.5737 25.6937 13.3937 26.3297 13.0217C26.9777 12.6497 27.4817 12.1457 27.8297 11.5217V9.40965H24.1937V10.2497H26.8937V11.3177C26.3537 12.1817 25.4057 12.7337 24.2537 12.7337C22.4297 12.7697 21.0257 11.2817 21.0617 9.46965C21.0257 7.68165 22.4057 6.21765 24.2057 6.25365C25.2617 6.25365 26.1137 6.73365 26.7257 7.56165L27.4337 7.00965C26.7017 5.98965 25.5497 5.38965 24.2057 5.38965C21.9377 5.35365 20.0537 7.21365 20.0897 9.48165ZM29.5588 13.4417H30.4948V9.62565H34.9348V13.4417H35.8708V5.52165H34.9348V8.78565H30.4948V5.52165H29.5588V13.4417ZM39.9749 13.4417H40.9109V6.36165H43.7069V5.52165H37.1909V6.36165H39.9749V13.4417Z" fill="black"/>
</svg>
