<svg width="27" height="18" viewBox="0 0 27 18" fill="none" xmlns="http://www.w3.org/2000/svg">
<path d="M8.79733 1.53165C8.24175 2.87861 7.12102 5.59608 5.86111 8.65118L2.66624 16.3984L2.55404 16.6705H5.05474H7.09492L7.35817 15.961L8.26331 13.5214L8.26332 13.5214C8.51232 12.8503 8.74116 12.235 8.90927 11.7843C8.99331 11.559 9.06228 11.3745 9.11104 11.2446L9.16883 11.0913C9.1742 11.0772 9.19555 11.0196 9.21104 10.9871C9.21104 10.9871 9.21105 10.9871 9.21105 10.9871L9.75253 11.2455C9.75289 11.2448 9.75403 11.2453 9.75593 11.2471C9.77726 11.2676 9.89447 11.4487 10.0811 11.7475L8.79733 1.53165ZM8.79733 1.53165C9.2052 2.2779 10.1117 3.94596 11.0248 5.63071L11.0248 5.63071C11.5711 6.63885 12.0733 7.55151 12.4426 8.21012C12.6269 8.5389 12.7795 8.80697 12.8884 8.99267C12.9423 9.08445 12.9886 9.16161 13.0241 9.21732C13.0405 9.24299 13.0617 9.27556 13.0838 9.30512C13.0917 9.3157 13.1171 9.34976 13.1532 9.38539L13.1537 9.38586C13.1668 9.39888 13.2183 9.44972 13.2984 9.49182C13.3409 9.51416 13.701 9.68858 14.0042 9.38461L14.0048 9.384C14.037 9.35167 14.0585 9.32233 14.0635 9.31548L14.0639 9.31496C14.0722 9.30365 14.0785 9.29421 14.082 9.28896C14.0891 9.27821 14.0948 9.26886 14.0979 9.2637C14.1047 9.25256 14.1114 9.24091 14.117 9.23114C14.1287 9.21067 14.1436 9.18376 14.161 9.15233C14.196 9.08876 14.2453 8.99803 14.3069 8.88403C14.4302 8.6556 14.6053 8.32894 14.819 7.9286C15.2466 7.1277 15.83 6.0295 16.4663 4.82722C17.2865 3.27738 17.8697 2.19077 18.2561 1.49441C18.2611 1.48557 18.2659 1.4768 18.2708 1.4681M8.79733 1.53165L18.2708 1.4681M18.2708 1.4681C18.3891 1.74734 18.5298 2.08372 18.6926 2.4767C19.2503 3.82244 20.0628 5.8202 21.1142 8.43152L21.6365 8.22123L21.1142 8.43152L24.3328 16.4249L24.4317 16.6705H21.8458H19.3142C19.3726 16.6362 19.4426 16.5833 19.5031 16.5029C19.6418 16.3188 19.6553 16.0964 19.5919 15.9187L19.5918 15.9184C19.3334 15.1948 18.8815 13.9755 18.4916 12.9388C18.2965 12.4201 18.1162 11.9453 17.9827 11.5995C17.9161 11.427 17.8603 11.2845 17.8198 11.184C17.7999 11.1345 17.782 11.0909 17.7676 11.0577C17.761 11.0426 17.7515 11.0213 17.7411 11.0003C17.737 10.9921 17.7253 10.9688 17.7085 10.942C17.7017 10.9311 17.6808 10.8982 17.6481 10.8612C17.6325 10.8435 17.598 10.8063 17.5458 10.7693C17.5053 10.7404 17.3767 10.6551 17.1877 10.6583L17.1864 10.6584C17.0093 10.6618 16.8888 10.7429 16.8644 10.7594L16.863 10.7603C16.8215 10.7881 16.7926 10.8152 16.7798 10.8275C16.7525 10.8538 16.7334 10.8773 16.7267 10.8857C16.7103 10.906 16.6974 10.9245 16.6912 10.9334C16.6768 10.9543 16.6613 10.9784 16.647 11.0009C16.6173 11.048 16.5772 11.1136 16.5292 11.1932C16.4326 11.3535 16.2966 11.5833 16.1317 11.8646C15.8015 12.4278 15.3518 13.2034 14.8621 14.0557C14.3737 14.9061 13.926 15.6788 13.5983 16.2385C13.5841 16.2627 13.5702 16.2864 13.5565 16.3097C13.5391 16.2813 13.5212 16.2521 13.503 16.2224L18.2708 1.4681ZM1.1874 0.639177C-3.19605 4.86555 -4.95682 10.9594 -3.49597 16.8481" stroke="#E30613" stroke-width="1.2"/>
</svg>
