<svg width="24" height="21" viewBox="0 0 24 21" fill="none" xmlns="http://www.w3.org/2000/svg">
<path d="M17.3923 8.71305H17.2383H13.7479H10.2575H10.2259L10.2038 8.69037L9.93822 8.41767C9.82441 8.3008 9.74909 8.21 9.70509 8.10301C9.661 7.99582 9.65137 7.87979 9.65137 7.71968C9.65137 7.23552 9.81855 6.87195 10.1544 6.72909M17.3923 8.71305L10.1544 6.72909M17.3923 8.71305L17.2973 8.59181M17.3923 8.71305L17.2973 8.59181M10.1544 6.72909C10.2216 6.70053 10.4968 6.61165 10.8664 6.49615M10.1544 6.72909L10.8664 6.49615M17.2973 8.59181L17.0618 8.29105L17.2973 8.59181ZM14.1461 5.52427L14.1461 5.52427C14.1785 5.52119 14.2128 5.53285 14.2376 5.54293C14.2662 5.55455 14.2985 5.57117 14.3321 5.59083C14.3997 5.63028 14.4783 5.68517 14.5524 5.74631M14.1461 5.52427L17.0618 8.29103C16.921 8.11114 16.3877 7.55237 15.8464 7.00357C15.3049 6.45446 14.746 5.90571 14.5524 5.74631M14.1461 5.52427C14.1298 5.52583 14.1007 5.5327 14.0684 5.54087M14.1461 5.52427L14.0684 5.54087M14.5524 5.74631L14.505 5.80392L14.5524 5.74628C14.5524 5.74629 14.5524 5.7463 14.5524 5.74631ZM14.0684 5.54087C14.0332 5.54978 13.9865 5.56231 13.9301 5.57789M14.0684 5.54087L13.9301 5.57789M13.9301 5.57789C13.8172 5.60909 13.6641 5.65291 13.4842 5.70532M13.9301 5.57789L13.4842 5.70532M13.4842 5.70532C13.1243 5.81017 12.6561 5.94969 12.1848 6.09207M13.4842 5.70532L12.1848 6.09207M12.1848 6.09207C11.7135 6.23445 11.2389 6.37975 10.8664 6.49615M12.1848 6.09207L10.8664 6.49615M0.115528 1.12709L0.115524 1.12708C0.0015667 0.772576 0.17232 0.412321 0.538494 0.256399C0.538467 0.256412 0.538508 0.256398 0.538624 0.256362C0.539522 0.256076 0.544897 0.254365 0.557431 0.252103C0.57054 0.249739 0.588029 0.247359 0.61014 0.245062C0.654301 0.240475 0.713483 0.236562 0.786341 0.233364C0.931868 0.226976 1.12832 0.22359 1.36084 0.222858C1.82566 0.221393 2.43182 0.230537 3.05695 0.247073C4.30998 0.280219 5.6298 0.342857 6.0434 0.408169C10.0856 1.04654 13.7094 2.87549 16.5112 5.69042C16.7693 5.94967 18.4519 7.76751 20.2514 9.7314C21.966 11.6027 22.8533 12.5777 23.3272 13.1888C23.5636 13.4937 23.694 13.7041 23.7729 13.8869C23.8512 14.0687 23.8803 14.2269 23.9092 14.4324C23.9559 14.7647 23.8969 15.16 23.7598 15.5315C23.6228 15.9029 23.4105 16.243 23.1582 16.4676C23.076 16.5409 22.8341 16.6903 22.6205 16.7967C22.6205 16.7967 22.6205 16.7967 22.6205 16.7967L22.2458 16.9831L11.3646 16.9839C10.5402 16.984 9.77656 16.9843 9.06908 16.9845C4.61008 16.9859 2.38324 16.9866 1.26023 16.9361C0.935178 16.9215 0.704922 16.9026 0.540762 16.8787C0.375022 16.8545 0.283968 16.826 0.231997 16.7964C0.186214 16.7703 0.170455 16.7435 0.159251 16.7074C0.153196 16.6879 0.148889 16.6667 0.143263 16.6391L0.141644 16.6311C0.135461 16.6008 0.12792 16.5653 0.115526 16.5268L0.115522 16.5268C0.0686857 16.3811 0.0638632 16.2524 0.0971086 16.1348C0.130461 16.0168 0.20401 15.9033 0.324938 15.7914C0.342304 15.7753 0.354969 15.7648 0.383549 15.7542C0.415942 15.7421 0.469898 15.7297 0.569957 15.7183C0.769706 15.6956 1.13303 15.6793 1.82846 15.6666C3.21745 15.6412 5.91824 15.6306 11.2517 15.6108L22.0558 15.5707L22.0859 15.5706L22.1076 15.5497L22.3092 15.3553L22.3092 15.3553C22.3947 15.2728 22.4538 15.1958 22.4893 15.0948C22.5238 14.9963 22.5337 14.8812 22.5337 14.7273C22.5337 14.7163 22.5337 14.7055 22.5338 14.6947C22.5341 14.597 22.5344 14.5101 22.5044 14.4119C22.4711 14.3031 22.4026 14.1852 22.2705 14.0134C22.0198 13.6875 21.5203 13.1433 20.5298 12.064C20.4789 12.0086 20.4267 11.9517 20.3733 11.8935L18.7424 10.1163L18.7202 10.0922L18.6875 10.092L14.3048 10.0695C12.1549 10.0584 11.0594 10.0519 10.4563 10.0271C10.1546 10.0147 9.98006 9.99778 9.86 9.97442C9.74289 9.95164 9.67672 9.9226 9.59013 9.88151C9.10534 9.65139 8.65864 9.15416 8.46481 8.62615L8.46481 8.62615C8.3455 8.30127 8.29771 7.89872 8.31932 7.50292C8.34093 7.10687 8.43166 6.7243 8.58344 6.43833L8.58345 6.43832C8.7965 6.03678 8.96121 5.81095 9.34511 5.59974C9.73813 5.38351 10.3591 5.18365 11.4917 4.85029C11.5766 4.82532 11.6564 4.80213 11.7311 4.78043C11.9516 4.71641 12.1275 4.66534 12.2554 4.61968C12.3407 4.58924 12.4111 4.55906 12.4611 4.52592C12.509 4.49413 12.5579 4.44607 12.5567 4.37572C12.5555 4.31126 12.5114 4.25922 12.466 4.21887C12.4174 4.17558 12.3479 4.12912 12.2613 4.07745C12.1318 4.0002 11.9541 3.90568 11.7306 3.78677C11.6547 3.74636 11.5734 3.70312 11.487 3.65679L11.4516 3.7229L11.487 3.65679C8.68256 2.15412 6.08071 1.58506 2.03833 1.58506C1.60159 1.58506 1.26994 1.58359 1.01503 1.57384C0.759205 1.56407 0.585896 1.54608 0.463714 1.51484C0.34385 1.48418 0.279081 1.44226 0.234147 1.38743C0.186385 1.32917 0.154831 1.24943 0.115528 1.12709ZM1.85804 5.67623L1.85805 5.67622C1.94177 5.65179 2.14322 5.63111 2.41488 5.6169C2.68274 5.60289 3.00956 5.59549 3.33712 5.59487C3.66467 5.59425 3.99212 5.60041 4.26123 5.61341C4.53395 5.62658 4.73761 5.64648 4.8241 5.67074L4.8241 5.67075C5.22669 5.78365 5.57636 6.06896 5.7543 6.42707L5.7543 6.42708C5.87835 6.67669 5.90198 6.86242 5.90198 7.82756C5.90198 8.43117 5.88915 8.78445 5.83772 9.03104C5.7878 9.27043 5.70168 9.40851 5.54548 9.58021L5.60095 9.63068L5.54547 9.58022C5.34132 9.80465 5.18087 9.92582 4.88829 9.99549C4.58673 10.0673 4.14549 10.0842 3.37716 10.0852C2.6351 10.0861 2.20196 10.0724 1.90582 10.0143C1.61742 9.95765 1.46127 9.85935 1.27393 9.6825L1.27392 9.68249C1.09157 9.5104 0.980815 9.34075 0.913482 9.07327C0.844818 8.80051 0.821118 8.42542 0.82018 7.84115C0.818693 6.90547 0.841517 6.73155 0.97549 6.44743L0.975493 6.44742C1.15329 6.07029 1.4792 5.78675 1.85804 5.67623ZM4.49285 8.71305H4.56785V8.63805V7.87608V7.11412V7.03912H4.49285H3.36022H2.22759H2.15259V7.11412V7.87608V8.63805V8.71305H2.22759H3.36022H4.49285ZM0.324937 19.9322C0.236891 19.8508 0.134119 19.7018 0.0994159 19.6087L0.0994031 19.6087C0.0611456 19.5058 0.068528 19.3519 0.116979 19.1987C0.165338 19.0458 0.248733 18.9123 0.341929 18.8453C0.341837 18.8454 0.341786 18.8454 0.341788 18.8454C0.341807 18.8455 0.347025 18.8423 0.362884 18.8378C0.379454 18.8331 0.403621 18.8281 0.438204 18.8231C0.507358 18.813 0.611611 18.8039 0.766867 18.7958C1.07695 18.7796 1.58299 18.7679 2.40239 18.7594C4.0407 18.7425 6.92678 18.7389 11.9916 18.7389C12.8758 18.7389 13.6939 18.7387 14.4509 18.7385C19.1444 18.7374 21.4884 18.7368 22.6693 18.7872C23.012 18.8019 23.2545 18.8207 23.4271 18.8447C23.6014 18.869 23.6972 18.8976 23.7516 18.9275C23.7994 18.9538 23.8146 18.9804 23.8252 19.0155C23.831 19.0345 23.8349 19.0549 23.8401 19.0818L23.842 19.0917C23.8479 19.1221 23.8552 19.1579 23.8677 19.1969C23.9146 19.3425 23.9194 19.4712 23.8862 19.5888C23.8528 19.7068 23.7792 19.8203 23.6583 19.9322C23.6407 19.9486 23.6286 19.9588 23.5997 19.9693C23.5667 19.9814 23.5109 19.9937 23.406 20.0048C23.1967 20.0269 22.8128 20.042 22.0729 20.0521C20.5949 20.0723 17.7092 20.0727 11.9916 20.0727C6.2741 20.0727 3.38837 20.0723 1.91039 20.0521C1.17047 20.042 0.786551 20.0269 0.577265 20.0048C0.47234 19.9937 0.416559 19.9814 0.38352 19.9693C0.354672 19.9588 0.342594 19.9486 0.324937 19.9322Z" fill="#E40613" stroke="white" stroke-width="0.15"/>
</svg>
