<svg width="35" height="15" viewBox="0 0 35 15" fill="none" xmlns="http://www.w3.org/2000/svg">
<path fill-rule="evenodd" clip-rule="evenodd" d="M17.8748 0.172531C16.0593 0.379217 14.6291 0.672004 13.3189 1.10519C11.9112 1.57066 10.9477 2.00857 8.90011 3.11363L7.97524 3.61283L7.29015 3.65931C5.35141 3.79093 3.34355 4.35073 1.67364 5.22532C1.02822 5.56328 0.435958 6.11807 0.195696 6.6098C0.0296991 6.94948 0.0279863 6.97285 0.00846119 9.22932C-0.0107213 11.4425 -0.00736439 11.51 0.128352 11.6458C0.257149 11.7747 0.352513 11.7855 1.3598 11.7855H2.4517L2.67113 12.2316C3.2971 13.5039 4.82225 14.3158 6.21504 14.1181C7.43018 13.9457 8.37396 13.2605 8.93258 12.1454L9.11283 11.7855H16.884H24.6552L24.8693 12.2098C25.46 13.3808 26.7289 14.1484 28.0484 14.1331C29.3721 14.1178 30.5302 13.3937 31.1074 12.2203C31.2952 11.8388 31.3452 11.7855 31.5157 11.7855C31.7508 11.7855 33.7373 10.9788 34.11 10.7321C34.4295 10.5204 34.7392 10.0877 34.8908 9.64084C34.9861 9.35991 35.0017 8.93181 34.9999 6.65882C34.9976 3.87662 34.9975 3.87614 34.6902 3.71237C34.6129 3.67117 33.6448 3.50781 32.539 3.34938L30.5284 3.06126L29.9525 2.72844C27.8962 1.54008 25.4093 0.686674 22.876 0.300039C22.1909 0.195428 18.4999 0.101374 17.8748 0.172531ZM18.6284 2.46238V3.62777L14.535 3.62428L10.4416 3.62078L11.1267 3.27206C13.2186 2.20723 15.4967 1.58066 18.1488 1.34066C18.2807 1.32873 18.4426 1.314 18.5085 1.30796C18.6184 1.29789 18.6284 1.394 18.6284 2.46238ZM22.7389 1.47105C24.0781 1.67122 25.8529 2.12737 26.7464 2.50098L27.007 2.60991L26.5018 3.11884L25.9965 3.62777H22.8948H19.793V2.45169V1.27554L20.9063 1.31948C21.5187 1.34368 22.3433 1.41189 22.7389 1.47105ZM28.7181 3.3962C28.9903 3.53276 29.4197 3.7668 29.6723 3.91624C30.1229 4.18291 30.1626 4.19251 31.7618 4.42044C32.6585 4.54823 33.4922 4.67032 33.6147 4.69178C33.8308 4.72968 33.8374 4.741 33.8374 5.07046V5.41014H32.944H32.0506L32.0705 5.97569L32.0904 6.54125L32.9639 6.56044L33.8374 6.57964V7.84799C33.8374 9.20862 33.7968 9.42189 33.4823 9.71166C33.3419 9.84095 31.7246 10.5516 31.5706 10.5516C31.5432 10.5516 31.4989 10.3914 31.472 10.1955C31.2071 8.26781 29.4179 6.90663 27.5094 7.18084C25.933 7.40727 24.5256 8.90603 24.521 10.363L24.5202 10.6201H22.1566H19.793V7.70664V4.79316H23.1273H26.4616L27.2892 3.97129C27.7444 3.51926 28.1408 3.14907 28.17 3.14866C28.1992 3.14825 28.4458 3.25965 28.7181 3.3962ZM18.6284 7.70664V10.6201H13.9729H9.3174L9.27767 10.363C9.25581 10.2217 9.19052 9.92088 9.13263 9.69466C8.81153 8.44083 7.63571 7.39541 6.30691 7.18228C4.4462 6.88394 2.63037 8.22215 2.31667 10.1231L2.23466 10.6201H1.65693H1.07919L1.1018 8.98644L1.12434 7.3527L1.33274 7.01556C1.48113 6.77542 1.66535 6.60315 1.97255 6.41724C3.20564 5.67091 5.11067 5.05688 6.77633 4.86891C7.05893 4.83704 9.84122 4.80694 12.9593 4.80208L18.6284 4.79316V7.70664ZM14.5322 5.97569L14.5521 6.54125H15.7168H16.8814L16.9013 5.97569L16.9212 5.41014H15.7168H14.5123L14.5322 5.97569ZM6.1964 8.36412C6.71563 8.46017 7.06085 8.63888 7.41819 8.99672C8.54496 10.1249 8.21392 12.0542 6.77633 12.7375C6.45146 12.8919 6.30985 12.9165 5.7487 12.9156C5.17939 12.9147 5.05497 12.892 4.75531 12.7342C3.32882 11.9829 3.02443 10.1205 4.1449 8.99933C4.49697 8.64711 4.77785 8.49341 5.26913 8.38441C5.75623 8.27638 5.72547 8.27699 6.1964 8.36412ZM28.3955 8.36385C29.6877 8.60063 30.5324 9.81983 30.2736 11.0747C30.1637 11.6071 29.9842 11.9459 29.6297 12.2903C29.1734 12.7334 28.7612 12.91 28.1169 12.9386C27.3468 12.9726 26.8791 12.7941 26.3623 12.2691C25.8479 11.7467 25.663 11.2687 25.6978 10.5516C25.7574 9.31865 26.633 8.42877 27.9159 8.29687C27.9561 8.29269 28.1719 8.32286 28.3955 8.36385Z" fill="#E30613"/>
</svg>
