<svg width="58" height="27" viewBox="0 0 58 27" fill="none" xmlns="http://www.w3.org/2000/svg">
<path d="M10.1663 26.1384L6.69551 14.9664H3.92791V26.1384H0.880859V0.147705H6.58733C10.4187 0.147705 12.5462 1.86434 12.5462 7.56169C12.5462 11.1713 11.6988 13.2962 9.49916 14.354L13.3666 26.1477H10.1663V26.1384ZM6.62339 2.95927H3.92791V12.192H6.62339C8.96727 12.192 9.49916 10.3269 9.49916 7.55242C9.49916 4.82436 8.96727 2.95927 6.62339 2.95927Z" fill="#E30613"/>
<path d="M17.167 26.1477V0.147705H26.9384V2.96027H20.2285V11.6857H26.0173V14.4983H20.2285V23.3351H26.9384V26.1477H17.167Z" fill="#E30613"/>
<path d="M40.8664 24.3191C39.89 25.3773 38.5083 26.1477 36.445 26.1477H30.4668V0.147705H36.445C38.5083 0.147705 39.89 0.918144 40.8664 1.97634C42.6442 3.91636 42.6811 6.75677 42.6811 13.1523C42.6811 19.5479 42.6442 22.3883 40.8664 24.3191ZM38.5083 3.94421C38.0754 3.35942 37.3477 2.96027 36.3344 2.96027H33.5802V23.3351H36.3344C37.3477 23.3351 38.0754 22.936 38.5083 22.3512C39.4479 21.1074 39.5584 19.1024 39.5584 13.1523C39.5676 7.19305 39.4571 5.18805 38.5083 3.94421Z" fill="#E30613"/>
<path d="M46.2512 0.147705V7.58291H49.289V2.96027H54.6457L45.667 26.1477H48.8486L57.8813 2.81175V0.147705H46.2512Z" fill="#E30613"/>
</svg>
