<svg width="58" height="27" viewBox="0 0 58 27" fill="none" xmlns="http://www.w3.org/2000/svg">
<path d="M9.50513 26.1384L6.03437 14.9664H3.26678V26.1384H0.219727V0.147705H5.92619C9.75755 0.147705 11.8851 1.86434 11.8851 7.56169C11.8851 11.1713 11.0377 13.2962 8.83803 14.354L12.7054 26.1477H9.50513V26.1384ZM5.96225 2.95927H3.26678V12.192H5.96225C8.30614 12.192 8.83803 10.3269 8.83803 7.55242C8.83803 4.82436 8.30614 2.95927 5.96225 2.95927Z" fill="white"/>
<path d="M16.5059 26.1477V0.147705H26.2773V2.96027H19.5673V11.6857H25.3561V14.4983H19.5673V23.3351H26.2773V26.1477H16.5059Z" fill="white"/>
<path d="M40.2053 24.3191C39.2289 25.3773 37.8472 26.1477 35.7838 26.1477H29.8057V0.147705H35.7838C37.8472 0.147705 39.2289 0.918144 40.2053 1.97634C41.9831 3.91636 42.0199 6.75677 42.0199 13.1523C42.0199 19.5479 41.9831 22.3883 40.2053 24.3191ZM37.8472 3.94421C37.4143 3.35942 36.6866 2.96027 35.6733 2.96027H32.9191V23.3351H35.6733C36.6866 23.3351 37.4143 22.936 37.8472 22.3512C38.7868 21.1074 38.8973 19.1024 38.8973 13.1523C38.9065 7.19305 38.796 5.18805 37.8472 3.94421Z" fill="white"/>
<path d="M45.5901 0.147705V7.58291H48.6279V2.96027H53.9846L45.0059 26.1477H48.1875L57.2201 2.81175V0.147705H45.5901Z" fill="white"/>
</svg>
