<svg width="21" height="25" viewBox="0 0 21 25" fill="none" xmlns="http://www.w3.org/2000/svg">
<path fill-rule="evenodd" clip-rule="evenodd" d="M0.905257 5.34031C0.931352 10.8981 0.932932 10.9313 1.24899 12.4637C1.74625 14.8747 2.81654 17.1697 4.40048 19.2214C4.93255 19.9106 6.23412 21.2188 6.97408 21.8081C7.82098 22.4826 8.89174 23.1576 9.93968 23.6777L10.8868 24.1477L11.7242 23.7425C12.6165 23.3108 13.5788 22.739 14.2568 22.2375C17.5598 19.7949 19.8138 16.2307 20.575 12.2467C20.8502 10.8061 20.855 10.7 20.8818 5.31105L20.9075 0.147705H10.8941H0.880859L0.905257 5.34031ZM18.8786 6.11554C18.8766 10.2974 18.86 10.6325 18.5871 11.9956C17.9382 15.2361 16.1486 18.1664 13.527 20.2808C13.0341 20.6784 11.9142 21.4102 11.343 21.708L10.8941 21.942L10.4453 21.708C9.88035 21.4134 8.75992 20.6802 8.26126 20.2786C5.68485 18.2037 3.9296 15.3739 3.23254 12.1711C2.94538 10.8518 2.92631 10.52 2.89512 6.30622C2.87885 4.11023 2.88084 2.27372 2.89957 2.22504C2.92964 2.14658 3.83523 2.13827 10.907 2.15138L18.8805 2.16624L18.8786 6.11554ZM10.5418 4.18775C9.0472 4.36006 7.91343 5.63302 7.91091 7.14177C7.90904 8.25401 8.54724 9.29616 9.53592 9.79524L9.89949 9.97878V13.5469V17.1151H11.6547H13.41V16.1204V15.1258H12.6494H11.8888V14.3962V13.6666L12.6347 13.6502L13.3807 13.6338V12.6392V11.6446L12.6347 11.6282L11.8888 11.6118V10.7977V9.98346L12.2984 9.76815C12.7709 9.5199 13.3285 8.96372 13.5569 8.51297C14.1451 7.35234 13.926 5.98191 13.0043 5.05596C12.3303 4.37878 11.4813 4.07945 10.5418 4.18775ZM11.4697 6.34284C11.9866 6.71086 12.0232 7.48253 11.543 7.88658C11.1376 8.22774 10.6506 8.22774 10.2452 7.88658C9.68406 7.41436 9.84689 6.49953 10.5431 6.21313C10.7388 6.13262 11.2811 6.20851 11.4697 6.34284Z" fill="#E30613"/>
</svg>
