<svg width="32" height="27" viewBox="0 0 32 27" fill="none" xmlns="http://www.w3.org/2000/svg">
<path fill-rule="evenodd" clip-rule="evenodd" d="M29.8446 0.14667C27.7145 0.940446 1.46286 11.157 1.0762 11.3427C-0.208626 11.9595 -0.358833 12.7744 0.710763 13.3255C0.81403 13.3787 2.59091 13.9543 4.65938 14.6047L8.4203 15.7871L16.9809 10.3623C22.0593 7.14407 25.6481 4.9085 25.8035 4.86641C26.2874 4.73529 26.5659 4.94781 26.3221 5.26234C26.2802 5.31642 24.711 6.75651 22.8349 8.46249C19.7459 11.2716 12.7383 17.6388 12.6141 17.7494C12.5726 17.7863 12.4395 19.538 12.056 25.0942L12.0369 25.3702L12.3195 25.3316C12.4749 25.3103 12.7215 25.2289 12.8674 25.1506C13.0132 25.0724 13.9952 24.1717 15.0495 23.1491C16.1037 22.1265 17.0022 21.2758 17.046 21.2588C17.0899 21.2418 18.7671 22.446 20.7732 23.9349C22.7793 25.4237 24.5779 26.7155 24.77 26.8054C25.2739 27.0413 25.8416 27.0647 26.2103 26.8649C26.54 26.6861 26.8614 26.243 26.9977 25.7791C27.0506 25.5993 28.1976 20.2311 29.5465 13.8498C31.7933 3.22173 31.9993 2.19692 32 1.64521C32.0006 1.12424 31.9792 1.00011 31.8414 0.725898C31.7442 0.532526 31.5785 0.335097 31.4165 0.219707C31.0462 -0.0441663 30.4331 -0.0726332 29.8446 0.14667Z" fill="black"/>
</svg>
