<svg width="32" height="32" viewBox="0 0 32 32" fill="none" xmlns="http://www.w3.org/2000/svg">
<path fill-rule="evenodd" clip-rule="evenodd" d="M14.7794 0.0113448C12.4054 0.249834 10.5862 0.774686 8.63385 1.7844C5.69209 3.30589 3.30477 5.69047 1.77579 8.63463C0.912577 10.2969 0.415069 11.8443 0.113758 13.804C-0.0201724 14.675 -0.0404689 16.9625 0.0776125 17.8716C0.404795 20.3907 1.22748 22.6471 2.57211 24.7134L3.02031 25.4022L2.02361 28.3421C1.47542 29.9591 1.03579 31.2909 1.04663 31.3017C1.05747 31.3125 2.42884 30.886 4.09414 30.3538C5.75949 29.8216 7.14427 29.3862 7.17152 29.3862C7.19877 29.3862 7.45585 29.532 7.74282 29.7102C8.46102 30.1562 9.7393 30.7593 10.6763 31.0942C13.8495 32.2284 17.5576 32.3011 20.7618 31.2917C22.6084 30.71 24.5453 29.6793 26.0052 28.5016C28.8642 26.195 30.878 22.9664 31.6597 19.4361C31.9307 18.2123 32 17.5111 32 15.9943C32 14.4774 31.9307 13.7763 31.6597 12.5524C30.6371 7.9345 27.5781 3.96178 23.368 1.7844C21.0547 0.588012 18.9329 0.0537734 16.3142 0.00840349C15.6079 -0.00386204 14.9172 -0.00254782 14.7794 0.0113448ZM11.0279 7.43962C11.1281 7.49144 11.2709 7.64219 11.345 7.77461C11.5258 8.09733 13.0567 11.7854 13.1003 12.0035C13.1557 12.2801 12.8657 12.7667 12.1842 13.5408C11.8368 13.9355 11.5447 14.3264 11.5228 14.4261C11.4707 14.6633 11.5862 14.9231 12.0507 15.6132C13.1199 17.2018 14.3665 18.449 15.8443 19.4086C16.8271 20.0468 17.9995 20.5625 18.4675 20.5625C18.8716 20.5625 19.083 20.382 19.8255 19.403C20.1901 18.9222 20.5823 18.4654 20.697 18.3879C20.9564 18.2128 21.2251 18.2096 21.6521 18.3766C22.2345 18.6042 25.2328 20.0705 25.4527 20.2353L25.6648 20.394L25.6297 21.0571C25.5399 22.7595 24.9417 23.6441 23.3615 24.4114C21.6475 25.2436 20.3691 25.1291 17.0659 23.8473C13.9527 22.6393 11.1179 20.2239 8.62051 16.6513C7.15078 14.5489 6.55862 12.8629 6.72575 11.2566C6.86964 9.87289 7.29586 8.94546 8.22667 7.99088C8.55448 7.65471 8.7944 7.52191 9.3295 7.38067C9.73442 7.27379 10.7769 7.30996 11.0279 7.43962Z" fill="black"/>
</svg>
